<svg width="24" height="25" viewBox="0 0 24 25" fill="none" xmlns="http://www.w3.org/2000/svg">
<path d="M12.0002 8.4789V12.7097L16.2987 17.7189M1 12.7106C1 14.8862 1.64514 17.0129 2.85383 18.8219C4.06253 20.6308 5.78049 22.0407 7.79048 22.8733C9.80047 23.7058 12.0122 23.9237 14.146 23.4992C16.2798 23.0748 18.2398 22.0272 19.7782 20.4888C21.3165 18.9504 22.3642 16.9904 22.7886 14.8566C23.2131 12.7228 22.9952 10.5111 22.1627 8.50109C21.3301 6.4911 19.9202 4.77314 18.1113 3.56444C16.3023 2.35575 14.1756 1.71061 12 1.71061C8.84888 1.70712 5.8179 2.91951 3.53846 5.09522M3.53846 5.09522L4.38476 1.7106M3.53846 5.09522L6.92322 5.94137" stroke="#070707" stroke-width="1.75" stroke-linecap="round" stroke-linejoin="round"/>
</svg>
