<svg width="26" height="26" viewBox="0 0 26 26" fill="none" xmlns="http://www.w3.org/2000/svg">
<path d="M13.0003 8.0942V12.7096L17.6895 18.1742M1 12.7106C1 15.084 1.70379 17.4041 3.02236 19.3774C4.34094 21.3508 6.21508 22.8889 8.4078 23.7972C10.6005 24.7054 13.0133 24.943 15.3411 24.48C17.6689 24.017 19.807 22.8741 21.4853 21.1959C23.1635 19.5177 24.3064 17.3795 24.7694 15.0517C25.2324 12.7239 24.9948 10.3111 24.0866 8.1184C23.1783 5.92569 21.6402 4.05155 19.6668 2.73297C17.6935 1.4144 15.3734 0.71061 13 0.71061C9.56241 0.706805 6.25589 2.02941 3.76923 4.40292M3.76923 4.40292L4.69246 0.710602M3.76923 4.40292L7.46169 5.32598" stroke="#070707" stroke-width="0.75" stroke-linecap="round" stroke-linejoin="round"/>
</svg>
