<svg width="26" height="26" viewBox="0 0 26 26" fill="none" xmlns="http://www.w3.org/2000/svg">
<path d="M0.999939 6.36997V22.9854C0.999939 23.475 1.19444 23.9446 1.54066 24.2908C1.88688 24.637 2.35646 24.8315 2.84609 24.8315H19.4614M23.1538 0.831512H7.46155C6.44195 0.831512 5.6154 1.65806 5.6154 2.67767V18.37C5.6154 19.3896 6.44195 20.2161 7.46155 20.2161H23.1538C24.1734 20.2161 24.9999 19.3896 24.9999 18.37V2.67767C24.9999 1.65806 24.1734 0.831512 23.1538 0.831512ZM12.2916 14.0128V7.03431C12.2902 6.91516 12.3208 6.79783 12.3803 6.69459C12.4398 6.59135 12.526 6.50601 12.6298 6.44751C12.7336 6.389 12.8512 6.35947 12.9704 6.36202C13.0895 6.36457 13.2057 6.39911 13.3069 6.462L19.3438 9.95123C19.4434 10.01 19.5258 10.0937 19.5831 10.194C19.6404 10.2944 19.6706 10.408 19.6706 10.5235C19.6706 10.6391 19.6404 10.7527 19.5831 10.853C19.5258 10.9534 19.4434 11.0371 19.3438 11.0958L13.3069 14.6774C13.199 14.7467 13.0732 14.7834 12.9449 14.7828C12.8166 14.7822 12.6912 14.7446 12.5838 14.6743C12.4764 14.604 12.3917 14.5041 12.3398 14.3867C12.288 14.2694 12.2712 14.1395 12.2916 14.0128Z" stroke="#070707" stroke-width="0.75" stroke-linecap="round" stroke-linejoin="round"/>
</svg>
