<svg width="24" height="25" viewBox="0 0 24 25" fill="none" xmlns="http://www.w3.org/2000/svg">
<path d="M0.999939 6.90844V22.1392C0.999939 22.588 1.17823 23.0185 1.4956 23.3358C1.81297 23.6532 2.24341 23.8315 2.69224 23.8315H17.9229M21.3076 1.83151H6.92308C5.98845 1.83151 5.23078 2.58918 5.23078 3.52382V17.9084C5.23078 18.8431 5.98845 19.6007 6.92308 19.6007H21.3076C22.2423 19.6007 22.9999 18.8431 22.9999 17.9084V3.52382C22.9999 2.58918 22.2423 1.83151 21.3076 1.83151ZM11.3506 13.9143V7.51741C11.3493 7.40819 11.3774 7.30063 11.432 7.206C11.4865 7.11137 11.5655 7.03314 11.6606 6.97951C11.7558 6.92587 11.8636 6.89881 11.9728 6.90115C12.082 6.90349 12.1886 6.93514 12.2814 6.99279L17.8152 10.1913C17.9064 10.2451 17.982 10.3218 18.0345 10.4138C18.0871 10.5058 18.1147 10.6099 18.1147 10.7159C18.1147 10.8218 18.0871 10.9259 18.0345 11.0179C17.982 11.1099 17.9064 11.1866 17.8152 11.2405L12.2814 14.5236C12.1824 14.5871 12.0671 14.6207 11.9495 14.6202C11.8319 14.6197 11.7169 14.5851 11.6185 14.5207C11.52 14.4563 11.4424 14.3647 11.3948 14.2571C11.3473 14.1495 11.3319 14.0305 11.3506 13.9143Z" stroke="#070707" stroke-width="1.75" stroke-linecap="round" stroke-linejoin="round"/>
</svg>
