<svg width="29" height="25" viewBox="0 0 29 25" fill="none" xmlns="http://www.w3.org/2000/svg">
<path d="M6.99152 10.0362L12.2967 1.55635C12.5023 1.22118 12.7912 0.94498 13.1352 0.754645C13.4793 0.56431 13.8668 0.466334 14.26 0.470259C14.5696 0.459082 14.8784 0.510094 15.168 0.62028C15.4576 0.730465 15.7222 0.89759 15.9461 1.11177C16.1701 1.32596 16.3488 1.58286 16.4717 1.86729C16.5947 2.15172 16.6593 2.45791 16.6619 2.76776V8.8457H25.831C26.1699 8.85669 26.5025 8.93927 26.8071 9.08801C27.1117 9.23674 27.3814 9.44828 27.5984 9.70869C27.8154 9.96911 27.9749 10.2725 28.0662 10.5989C28.1576 10.9254 28.1788 11.2675 28.1285 11.6027L26.4576 22.3801C26.3864 22.956 26.1072 23.4862 25.6726 23.8708C25.238 24.2554 24.6778 24.468 24.0975 24.4687H10.396C9.74376 24.4713 9.09999 24.3211 8.51623 24.0301L7.01241 23.2782M6.99152 10.0362V23.2153H2.04136C1.76439 23.2153 1.49876 23.1053 1.30291 22.9094C1.10707 22.7136 0.99704 22.4479 0.99704 22.171V11.0803C0.99704 10.8033 1.10707 10.5377 1.30291 10.3419C1.49876 10.146 1.76439 10.036 2.04136 10.036L6.99152 10.0362Z" stroke="#070707" stroke-width="0.75" stroke-linecap="round" stroke-linejoin="round"/>
</svg>
