<svg width="24" height="22" viewBox="0 0 24 22" fill="none" xmlns="http://www.w3.org/2000/svg">
<path d="M5.853 9.21909L10.1505 2.34978C10.3171 2.07827 10.5511 1.85453 10.8299 1.70035C11.1086 1.54616 11.4225 1.46679 11.741 1.46997C11.9918 1.46092 12.2419 1.50224 12.4766 1.5915C12.7112 1.68076 12.9255 1.81614 13.1069 1.98965C13.2883 2.16315 13.433 2.37126 13.5326 2.60167C13.6322 2.83208 13.6846 3.08011 13.6867 3.33111V8.25468H21.1144C21.3888 8.26358 21.6583 8.33048 21.905 8.45097C22.1518 8.57146 22.3703 8.74281 22.5461 8.95377C22.7219 9.16472 22.851 9.4105 22.925 9.67494C22.999 9.93938 23.0162 10.2165 22.9755 10.4881L21.622 19.2185C21.5642 19.6851 21.3381 20.1145 20.986 20.4261C20.6339 20.7376 20.1802 20.9099 19.7101 20.9104H8.61088C8.08252 20.9125 7.56101 20.7908 7.08812 20.5551L5.86992 19.946M5.853 9.21909V19.8951H1.84301C1.61865 19.8951 1.40347 19.806 1.24482 19.6473C1.08617 19.4887 0.99704 19.2735 0.99704 19.0491V10.0649C0.99704 9.8405 1.08617 9.62533 1.24482 9.46668C1.40347 9.30803 1.61865 9.2189 1.84301 9.2189L5.853 9.21909Z" stroke="#070707" stroke-width="1.75" stroke-linecap="round" stroke-linejoin="round"/>
</svg>
