<svg width="145" height="30" viewBox="0 0 145 30" fill="none" xmlns="http://www.w3.org/2000/svg">
<path d="M0 6C0 2.68629 2.68629 0 6 0H36C39.3137 0 42 2.68629 42 6V24C42 27.3137 39.3137 30 36 30H6C2.68629 30 0 27.3137 0 24V6Z" fill="#D9D9D9"/>
<path d="M26.2111 14.1056C26.9482 14.4741 26.9482 15.5259 26.2111 15.8944L17.4472 20.2764C16.7823 20.6088 16 20.1253 16 19.382V10.618C16 9.87465 16.7823 9.39116 17.4472 9.72361L26.2111 14.1056Z" fill="#070707"/>
<path d="M57.4 24.5V18.572L52.096 7.748H56.104L57.88 11.636L59.176 14.924H59.368L60.664 11.636L62.44 7.748H66.304L61 18.572V24.5H57.4Z" fill="#111111"/>
<path d="M72.3906 24.788C71.4306 24.788 70.5666 24.644 69.7986 24.356C69.0306 24.052 68.3746 23.62 67.8306 23.06C67.3026 22.5 66.8946 21.82 66.6066 21.02C66.3186 20.22 66.1746 19.316 66.1746 18.308C66.1746 17.3 66.3186 16.396 66.6066 15.596C66.8946 14.796 67.3026 14.116 67.8306 13.556C68.3746 12.996 69.0306 12.572 69.7986 12.284C70.5666 11.98 71.4306 11.828 72.3906 11.828C73.3506 11.828 74.2146 11.98 74.9826 12.284C75.7506 12.572 76.3986 12.996 76.9266 13.556C77.4706 14.116 77.8866 14.796 78.1746 15.596C78.4626 16.396 78.6066 17.3 78.6066 18.308C78.6066 19.316 78.4626 20.22 78.1746 21.02C77.8866 21.82 77.4706 22.5 76.9266 23.06C76.3986 23.62 75.7506 24.052 74.9826 24.356C74.2146 24.644 73.3506 24.788 72.3906 24.788ZM72.3906 22.148C73.1906 22.148 73.8146 21.9 74.2626 21.404C74.7106 20.908 74.9346 20.204 74.9346 19.292V17.324C74.9346 16.412 74.7106 15.708 74.2626 15.212C73.8146 14.716 73.1906 14.468 72.3906 14.468C71.5906 14.468 70.9666 14.716 70.5186 15.212C70.0706 15.708 69.8466 16.412 69.8466 17.324V19.292C69.8466 20.204 70.0706 20.908 70.5186 21.404C70.9666 21.9 71.5906 22.148 72.3906 22.148Z" fill="#111111"/>
<path d="M87.6693 22.244H87.5253C87.2533 22.948 86.8212 23.548 86.2292 24.044C85.6532 24.54 84.8693 24.788 83.8773 24.788C83.2853 24.788 82.7413 24.692 82.2453 24.5C81.7493 24.292 81.3253 23.988 80.9733 23.588C80.6213 23.188 80.3412 22.7 80.1332 22.124C79.9412 21.548 79.8453 20.884 79.8453 20.132V12.116H83.3972V19.652C83.3972 21.252 84.0933 22.052 85.4853 22.052C85.7573 22.052 86.0213 22.02 86.2773 21.956C86.5493 21.876 86.7813 21.764 86.9733 21.62C87.1813 21.46 87.3492 21.268 87.4772 21.044C87.6052 20.82 87.6693 20.556 87.6693 20.252V12.116H91.2213V24.5H87.6693V22.244Z" fill="#111111"/>
<path d="M100.572 10.7V24.5H96.9719V10.7H92.1479V7.748H105.396V10.7H100.572Z" fill="#111111"/>
<path d="M114.05 22.244H113.907C113.635 22.948 113.203 23.548 112.611 24.044C112.035 24.54 111.25 24.788 110.258 24.788C109.666 24.788 109.123 24.692 108.627 24.5C108.131 24.292 107.706 23.988 107.354 23.588C107.002 23.188 106.723 22.7 106.515 22.124C106.323 21.548 106.227 20.884 106.227 20.132V12.116H109.779V19.652C109.779 21.252 110.475 22.052 111.867 22.052C112.139 22.052 112.403 22.02 112.659 21.956C112.931 21.876 113.162 21.764 113.354 21.62C113.562 21.46 113.73 21.268 113.858 21.044C113.986 20.82 114.05 20.556 114.05 20.252V12.116H117.603V24.5H114.05V22.244Z" fill="#111111"/>
<path d="M119.369 6.74H122.921V14.372H123.089C123.393 13.636 123.833 13.028 124.409 12.548C124.985 12.068 125.769 11.828 126.761 11.828C127.449 11.828 128.073 11.956 128.633 12.212C129.209 12.468 129.697 12.86 130.097 13.388C130.513 13.916 130.833 14.588 131.057 15.404C131.297 16.22 131.417 17.188 131.417 18.308C131.417 19.428 131.297 20.396 131.057 21.212C130.833 22.028 130.513 22.7 130.097 23.228C129.697 23.756 129.209 24.148 128.633 24.404C128.073 24.66 127.449 24.788 126.761 24.788C125.769 24.788 124.985 24.556 124.409 24.092C123.833 23.612 123.393 22.996 123.089 22.244H122.921V24.5H119.369V6.74ZM125.225 22.028C126.025 22.028 126.641 21.788 127.073 21.308C127.505 20.812 127.721 20.132 127.721 19.268V17.348C127.721 16.484 127.505 15.812 127.073 15.332C126.641 14.836 126.025 14.588 125.225 14.588C124.601 14.588 124.057 14.74 123.593 15.044C123.145 15.348 122.921 15.828 122.921 16.484V20.132C122.921 20.788 123.145 21.268 123.593 21.572C124.057 21.876 124.601 22.028 125.225 22.028Z" fill="#111111"/>
<path d="M138.68 24.788C136.6 24.788 135.024 24.212 133.952 23.06C132.88 21.908 132.344 20.34 132.344 18.356C132.344 17.348 132.48 16.444 132.752 15.644C133.04 14.828 133.44 14.14 133.952 13.58C134.48 13.004 135.112 12.572 135.848 12.284C136.6 11.98 137.44 11.828 138.368 11.828C139.296 11.828 140.128 11.98 140.864 12.284C141.6 12.572 142.224 12.988 142.736 13.532C143.248 14.076 143.64 14.74 143.912 15.524C144.2 16.292 144.344 17.156 144.344 18.116V19.172H135.872V19.388C135.872 20.188 136.12 20.836 136.616 21.332C137.112 21.812 137.84 22.052 138.8 22.052C139.536 22.052 140.168 21.916 140.696 21.644C141.224 21.356 141.68 20.98 142.064 20.516L143.984 22.604C143.504 23.196 142.832 23.708 141.968 24.14C141.104 24.572 140.008 24.788 138.68 24.788ZM138.392 14.372C137.624 14.372 137.008 14.612 136.544 15.092C136.096 15.556 135.872 16.188 135.872 16.988V17.18H140.864V16.988C140.864 16.172 140.64 15.532 140.192 15.068C139.76 14.604 139.16 14.372 138.392 14.372Z" fill="#111111"/>
</svg>
