<svg width="25" height="25" viewBox="0 0 25 25" fill="none" xmlns="http://www.w3.org/2000/svg">
<path d="M4.11622 7.55059C1.77284 8.59373 0.856363 11.1313 2.08354 13.1787C2.72149 14.243 3.81249 14.962 5.03808 15.2461L3.9833 15.7156C1.63995 16.7587 0.723503 19.2962 1.95069 21.3436C3.14473 23.3357 5.92591 24.1179 8.20597 23.1029L20.6951 17.5435C23.0384 16.5003 23.9549 13.9628 22.7277 11.9155C22.0898 10.8512 20.9988 10.1322 19.7733 9.84816L20.8279 9.3787C23.1713 8.33556 24.0878 5.79801 22.8606 3.75061C21.6665 1.75847 18.8853 0.976213 16.6052 1.9912L4.11622 7.55059Z" stroke="#070707" stroke-width="1.75" stroke-linecap="round" stroke-linejoin="round"/>
<path d="M9.82382 15.0713V9.9526C9.82266 9.8652 9.84814 9.77913 9.8976 9.70341C9.94706 9.62768 10.0187 9.56509 10.105 9.52217C10.1912 9.47925 10.289 9.4576 10.388 9.45947C10.4871 9.46134 10.5837 9.48667 10.6678 9.5328L15.6857 12.0922C15.7684 12.1353 15.8369 12.1967 15.8846 12.2703C15.9322 12.3439 15.9572 12.4272 15.9572 12.512C15.9572 12.5967 15.9322 12.68 15.8846 12.7537C15.8369 12.8273 15.7684 12.8887 15.6857 12.9318L10.6678 15.5588C10.5781 15.6097 10.4735 15.6366 10.3669 15.6362C10.2602 15.6358 10.156 15.6081 10.0667 15.5566C9.97747 15.505 9.90704 15.4318 9.86394 15.3457C9.82084 15.2596 9.8069 15.1643 9.82382 15.0713Z" stroke="#070707" stroke-width="1.75" stroke-linecap="round" stroke-linejoin="round"/>
</svg>
