<svg width="25" height="25" viewBox="0 0 25 25" fill="none" xmlns="http://www.w3.org/2000/svg">
<path d="M3.36263 7.09636C0.806223 8.23433 -0.193571 11.0026 1.14516 13.2361C1.84111 14.3972 3.0313 15.1815 4.3683 15.4914L3.21763 16.0036C0.661256 17.1416 -0.338509 19.9098 1.00024 22.1433C2.30283 24.3164 5.33684 25.1698 7.82418 24.0625L21.4487 17.9977C24.0051 16.8597 25.0048 14.0915 23.6661 11.858C22.9701 10.697 21.78 9.91268 20.4431 9.60281L21.5936 9.09066C24.15 7.95269 25.1498 5.18446 23.8111 2.95093C22.5085 0.77769 19.4744 -0.0756819 16.9869 1.03158L3.36263 7.09636Z" stroke="#070707" stroke-width="0.75" stroke-linecap="round" stroke-linejoin="round"/>
<path d="M9.58911 15.3008V9.71674C9.58784 9.62139 9.61564 9.5275 9.6696 9.44489C9.72355 9.36229 9.80168 9.294 9.89581 9.24718C9.98994 9.20036 10.0966 9.17674 10.2046 9.17878C10.3126 9.18082 10.4181 9.20845 10.5098 9.25878L15.9839 12.0508C16.0741 12.0978 16.1489 12.1648 16.2008 12.2451C16.2528 12.3254 16.2801 12.4163 16.2801 12.5088C16.2801 12.6013 16.2528 12.6921 16.2008 12.7724C16.1489 12.8528 16.0741 12.9197 15.9839 12.9667L10.5098 15.8326C10.4119 15.8881 10.2979 15.9174 10.1815 15.917C10.0652 15.9165 9.95145 15.8864 9.85408 15.8301C9.75672 15.7739 9.6799 15.694 9.63288 15.6001C9.58586 15.5061 9.57066 15.4022 9.58911 15.3008Z" stroke="#070707" stroke-width="0.75" stroke-linecap="round" stroke-linejoin="round"/>
</svg>
