<svg width="24" height="24" viewBox="0 0 24 24" fill="none" xmlns="http://www.w3.org/2000/svg">
<path d="M2.69031 5.18426H21.3113M6.07602 0.95343H17.9257M20.9089 9.41451H3.09942C1.94225 9.41451 1.00418 10.1 1.00418 10.9457V21.4222C1.00418 22.2679 1.94225 22.9534 3.09942 22.9534H20.9089C22.0661 22.9534 23.0042 22.2679 23.0042 21.4222V10.9457C23.0042 10.1 22.0661 9.41451 20.9089 9.41451ZM9.43325 18.951V13.3385C9.43212 13.2427 9.45679 13.1483 9.50466 13.0653C9.55253 12.9823 9.62185 12.9136 9.70535 12.8666C9.78886 12.8195 9.88349 12.7958 9.97932 12.7978C10.0752 12.7999 10.1687 12.8276 10.2501 12.8782L15.1066 15.6845C15.1867 15.7317 15.2531 15.799 15.2991 15.8798C15.3452 15.9605 15.3695 16.0518 15.3695 16.1448C15.3695 16.2377 15.3452 16.329 15.2991 16.4098C15.2531 16.4905 15.1867 16.5578 15.1066 16.605L10.2501 19.4855C10.1632 19.5413 10.0621 19.5708 9.95885 19.5703C9.85561 19.5699 9.75471 19.5396 9.66833 19.483C9.58196 19.4265 9.51379 19.3462 9.47208 19.2518C9.43036 19.1574 9.41688 19.0529 9.43325 18.951Z" stroke="#070707" stroke-width="1.75" stroke-linecap="round" stroke-linejoin="round"/>
</svg>
