<svg width="26" height="26" viewBox="0 0 26 26" fill="none" xmlns="http://www.w3.org/2000/svg">
<path d="M2.84359 5.56888H23.1574M6.53709 0.95343H19.4641M22.7185 10.1837H3.2899C2.02753 10.1837 1.00418 10.9316 1.00418 11.8541V23.283C1.00418 24.2056 2.02753 24.9534 3.2899 24.9534H22.7185C23.9808 24.9534 25.0042 24.2056 25.0042 23.283V11.8541C25.0042 10.9316 23.9808 10.1837 22.7185 10.1837ZM10.1995 20.5872V14.4644C10.1983 14.3599 10.2252 14.2569 10.2774 14.1664C10.3296 14.0758 10.4053 14.0009 10.4964 13.9496C10.5875 13.8982 10.6907 13.8723 10.7952 13.8746C10.8998 13.8768 11.0018 13.9071 11.0906 13.9623L16.3887 17.0237C16.476 17.0752 16.5484 17.1486 16.5987 17.2367C16.649 17.3247 16.6754 17.4244 16.6754 17.5258C16.6754 17.6272 16.649 17.7268 16.5987 17.8149C16.5484 17.9029 16.476 17.9764 16.3887 18.0279L11.0906 21.1703C10.9959 21.2311 10.8855 21.2632 10.7729 21.2628C10.6603 21.2623 10.5502 21.2292 10.456 21.1675C10.3618 21.1059 10.2874 21.0183 10.2419 20.9153C10.1964 20.8123 10.1817 20.6983 10.1995 20.5872Z" stroke="#070707" stroke-width="0.75" stroke-linecap="round" stroke-linejoin="round"/>
</svg>
