<svg width="20" height="20" viewBox="0 0 20 20" fill="none" xmlns="http://www.w3.org/2000/svg">
<path d="M19.3732 8.69835C19.7693 9.52091 19.7693 10.4791 19.3732 11.3017L16.8617 16.5167C16.4656 17.3392 15.7165 17.9366 14.8264 18.1398L9.18329 19.4278C8.29321 19.631 7.35905 19.4177 6.64526 18.8485L2.11984 15.2396C1.40605 14.6704 0.99031 13.8071 0.99031 12.8941L0.99031 7.10589C0.99031 6.19291 1.40605 5.32962 2.11984 4.76039L6.64526 1.15149C7.35905 0.582261 8.29321 0.369046 9.18329 0.572202L14.8264 1.8602C15.7165 2.06336 16.4656 2.66078 16.8617 3.48334L19.3732 8.69835Z" fill="#FF0000"/>
<path d="M7 5L7 15M13 5L13 15" stroke="white" stroke-width="3"/>
</svg>
