<svg width="74" height="20" viewBox="0 0 74 20" fill="none" xmlns="http://www.w3.org/2000/svg">
<path d="M19.3732 8.69835C19.7693 9.52091 19.7693 10.4791 19.3732 11.3017L16.8617 16.5167C16.4656 17.3392 15.7165 17.9366 14.8264 18.1398L9.18329 19.4278C8.29321 19.631 7.35905 19.4177 6.64526 18.8485L2.11984 15.2396C1.40605 14.6704 0.99031 13.8071 0.99031 12.8941L0.99031 7.10589C0.99031 6.19291 1.40605 5.32962 2.11984 4.76039L6.64526 1.15149C7.35905 0.582261 8.29321 0.369046 9.18329 0.572202L14.8264 1.8602C15.7165 2.06336 16.4656 2.66078 16.8617 3.48334L19.3732 8.69835Z" fill="#FF0000"/>
<path d="M23.4951 16V4.82812H26.5674C27.3714 4.82812 27.9766 5.05241 28.3828 5.50098C28.7891 5.94531 28.9922 6.59701 28.9922 7.45605V12.6865C28.9922 13.7445 28.806 14.5612 28.4336 15.1367C28.0654 15.7122 27.418 16 26.4912 16H23.4951ZM25.7422 14.0259H26.1294C26.5399 14.0259 26.7451 13.827 26.7451 13.4292V7.66553C26.7451 7.29313 26.6943 7.05404 26.5928 6.94824C26.4954 6.83822 26.2944 6.7832 25.9897 6.7832H25.7422V14.0259ZM29.8682 16V6.47852H32.1787V7.53857C32.2887 7.17041 32.4834 6.88265 32.7627 6.67529C33.042 6.46794 33.3932 6.36426 33.8164 6.36426V8.26221C33.6302 8.26221 33.408 8.28337 33.1499 8.32568C32.8918 8.36377 32.6654 8.41878 32.4707 8.49072C32.276 8.55843 32.1787 8.6346 32.1787 8.71924V16H29.8682ZM36.1079 16.1016C35.5789 16.1016 35.1748 15.9788 34.8955 15.7334C34.6204 15.488 34.4321 15.1515 34.3306 14.7241C34.229 14.2967 34.1782 13.8122 34.1782 13.2705C34.1782 12.6908 34.2354 12.2168 34.3496 11.8486C34.4639 11.4762 34.6585 11.1715 34.9336 10.9346C35.2129 10.6976 35.5959 10.4966 36.0825 10.3315L37.4917 9.84912V8.87158C37.4917 8.35954 37.3245 8.10352 36.9902 8.10352C36.6855 8.10352 36.5332 8.31087 36.5332 8.72559V9.29688H34.3242C34.32 9.26302 34.3179 9.2207 34.3179 9.16992C34.3179 9.11491 34.3179 9.05355 34.3179 8.98584C34.3179 8.03792 34.54 7.36719 34.9844 6.97363C35.4329 6.57585 36.1418 6.37695 37.1108 6.37695C37.6187 6.37695 38.0736 6.46794 38.4756 6.6499C38.8776 6.82764 39.195 7.09212 39.4277 7.44336C39.6647 7.7946 39.7832 8.22835 39.7832 8.74463V16H37.5234V14.8701C37.4134 15.2679 37.2314 15.5726 36.9775 15.7842C36.7236 15.9958 36.4338 16.1016 36.1079 16.1016ZM37.0029 14.3369C37.1891 14.3369 37.3161 14.2586 37.3838 14.1021C37.4515 13.9455 37.4854 13.7762 37.4854 13.5942V10.9409C37.1722 11.0679 36.9289 11.2287 36.7554 11.4233C36.5819 11.6138 36.4951 11.8952 36.4951 12.2676V13.4927C36.4951 14.0555 36.6644 14.3369 37.0029 14.3369ZM41.6558 16L40.5068 6.47852H42.4556L43.084 11.5947L43.6362 6.47852H45.8135L46.4673 11.5947L46.9941 6.47852H48.9492L47.7876 16H45.3945L44.709 10.5981L44.1123 16H41.6558ZM50.7075 16V6.97363H49.3809V4.82812H54.2686V6.97363H52.9419V16H50.7075ZM56.687 16.1016C56.1792 16.1016 55.7899 15.9958 55.519 15.7842C55.2524 15.5726 55.0705 15.2785 54.9731 14.9019C54.8758 14.521 54.8271 14.0767 54.8271 13.5688V6.47852H57.1123V13.3022C57.1123 13.6831 57.1419 13.9497 57.2012 14.1021C57.2604 14.2502 57.4001 14.3242 57.6201 14.3242C57.8571 14.3242 58.0052 14.2184 58.0645 14.0068C58.1279 13.7952 58.1597 13.5223 58.1597 13.188V6.47852H60.4258V16H58.1533V14.9844C58.0094 15.3483 57.8359 15.6255 57.6328 15.8159C57.4339 16.0063 57.1187 16.1016 56.687 16.1016ZM65.1421 16.1016C64.7697 16.1016 64.4671 16.0106 64.2344 15.8286C64.0016 15.6424 63.8154 15.361 63.6758 14.9844V16H61.3652V4.82812H63.6758V7.49414C63.8154 7.1429 64.008 6.86995 64.2534 6.67529C64.5031 6.4764 64.8586 6.37695 65.3198 6.37695C65.9419 6.37695 66.3799 6.60335 66.6338 7.05615C66.8919 7.50895 67.021 8.1014 67.021 8.8335V13.5181C67.021 14.0047 66.9533 14.4448 66.8179 14.8384C66.6867 15.2277 66.4814 15.5366 66.2021 15.7651C65.9271 15.9894 65.5737 16.1016 65.1421 16.1016ZM64.2026 14.3306C64.4438 14.3306 64.5898 14.2121 64.6406 13.9751C64.6914 13.7381 64.7168 13.4461 64.7168 13.0991V9.37939C64.7168 9.02816 64.6914 8.73617 64.6406 8.50342C64.5898 8.26644 64.446 8.14795 64.209 8.14795C63.9635 8.14795 63.8133 8.26855 63.7583 8.50977C63.7033 8.74674 63.6758 9.03662 63.6758 9.37939V13.0991C63.6758 13.4419 63.7033 13.7339 63.7583 13.9751C63.8133 14.2121 63.9614 14.3306 64.2026 14.3306ZM70.5312 16.1016C69.8542 16.1016 69.3146 15.9746 68.9126 15.7207C68.5106 15.4668 68.2228 15.1007 68.0493 14.6226C67.8758 14.1444 67.7891 13.5688 67.7891 12.896V9.06836C67.7891 8.18392 68.043 7.5153 68.5508 7.0625C69.0586 6.60547 69.7568 6.37695 70.6455 6.37695C72.4736 6.37695 73.3877 7.27409 73.3877 9.06836V9.76025C73.3877 10.5981 73.3792 11.161 73.3623 11.4487H70.0615V13.2896C70.0615 13.4588 70.0721 13.626 70.0933 13.791C70.1144 13.9518 70.161 14.0851 70.2329 14.1909C70.3091 14.2967 70.4297 14.3496 70.5947 14.3496C70.8317 14.3496 70.9798 14.248 71.0391 14.0449C71.0983 13.8376 71.1279 13.5688 71.1279 13.2388V12.3247H73.3877V12.8643C73.3877 13.5752 73.2988 14.1719 73.1211 14.6543C72.9476 15.1325 72.6514 15.4943 72.2324 15.7397C71.8177 15.981 71.2507 16.1016 70.5312 16.1016ZM70.0488 10.3188H71.1279V9.03662C71.1279 8.69385 71.0856 8.4484 71.001 8.30029C70.9163 8.14795 70.7894 8.07178 70.6201 8.07178C70.4382 8.07178 70.2964 8.14372 70.1948 8.2876C70.0975 8.43148 70.0488 8.68115 70.0488 9.03662V10.3188Z" fill="white"/>
<path d="M7 5L7 15M13 5L13 15" stroke="white" stroke-width="3"/>
</svg>
