<svg width="29" height="31" viewBox="0 0 29 31" fill="none" xmlns="http://www.w3.org/2000/svg">
<path d="M5.08856 9.25175C2.41841 10.5986 1.37413 13.8751 2.77243 16.5187C3.49934 17.893 4.74248 18.8214 6.13897 19.1881L4.9371 19.7944C2.26699 21.1413 1.22274 24.4177 2.62105 27.0613C3.98161 29.6334 7.1506 30.6434 9.74861 29.3329L23.9793 22.1545C26.6494 20.8076 27.6937 17.5312 26.2954 14.8877C25.5685 13.5135 24.3254 12.5851 22.929 12.2184L24.1307 11.6122C26.8008 10.2653 27.8451 6.98882 26.4468 4.34523C25.0862 1.77298 21.9171 0.762926 19.319 2.07348L5.08856 9.25175Z" stroke="#070707" stroke-width="2.14669" stroke-linecap="round" stroke-linejoin="round"/>
<path d="M11.5921 18.9625V12.3532C11.5907 12.2404 11.6198 12.1292 11.6761 12.0315C11.7325 11.9337 11.8141 11.8529 11.9124 11.7975C12.0107 11.742 12.1221 11.7141 12.235 11.7165C12.3478 11.7189 12.4579 11.7516 12.5537 11.8112L18.2713 15.1158C18.3656 15.1715 18.4437 15.2508 18.498 15.3458C18.5522 15.4409 18.5808 15.5484 18.5808 15.6579C18.5808 15.7673 18.5522 15.8749 18.498 15.9699C18.4437 16.065 18.3656 16.1443 18.2713 16.1999L12.5537 19.592C12.4515 19.6577 12.3324 19.6924 12.2109 19.6918C12.0893 19.6913 11.9705 19.6556 11.8688 19.589C11.7671 19.5225 11.6869 19.4279 11.6378 19.3167C11.5887 19.2056 11.5728 19.0825 11.5921 18.9625Z" stroke="#070707" stroke-width="2.14669" stroke-linecap="round" stroke-linejoin="round"/>
</svg>
